<svg width="118" height="26" viewBox="0 0 118 26" fill="none" xmlns="http://www.w3.org/2000/svg">
<path d="M7.70455 21H1.51705V3.54545H7.75568C9.51136 3.54545 11.0227 3.89489 12.2898 4.59375C13.5568 5.28693 14.5313 6.28409 15.2131 7.58523C15.9006 8.88636 16.2443 10.4432 16.2443 12.2557C16.2443 14.0739 15.9006 15.6364 15.2131 16.9432C14.5313 18.25 13.5511 19.2528 12.2727 19.9517C11 20.6506 9.47727 21 7.70455 21ZM5.20739 17.8381H7.55114C8.64205 17.8381 9.55966 17.6449 10.304 17.2585C11.054 16.8665 11.6165 16.2614 11.9915 15.4432C12.3722 14.6193 12.5625 13.5568 12.5625 12.2557C12.5625 10.9659 12.3722 9.91193 11.9915 9.09375C11.6165 8.27557 11.0568 7.6733 10.3125 7.28693C9.56818 6.90057 8.65057 6.70739 7.55966 6.70739H5.20739V17.8381ZM25.5446 21.2557C24.2207 21.2557 23.0758 20.9744 22.1099 20.4119C21.1497 19.8437 20.4082 19.054 19.8855 18.0426C19.3628 17.0256 19.1014 15.8466 19.1014 14.5057C19.1014 13.1534 19.3628 11.9716 19.8855 10.9602C20.4082 9.94318 21.1497 9.15341 22.1099 8.59091C23.0758 8.02273 24.2207 7.73864 25.5446 7.73864C26.8684 7.73864 28.0105 8.02273 28.9707 8.59091C29.9366 9.15341 30.6809 9.94318 31.2037 10.9602C31.7264 11.9716 31.9878 13.1534 31.9878 14.5057C31.9878 15.8466 31.7264 17.0256 31.2037 18.0426C30.6809 19.054 29.9366 19.8437 28.9707 20.4119C28.0105 20.9744 26.8684 21.2557 25.5446 21.2557ZM25.5616 18.4432C26.1639 18.4432 26.6667 18.2727 27.0701 17.9318C27.4736 17.5852 27.7775 17.1136 27.9821 16.517C28.1923 15.9205 28.2974 15.2415 28.2974 14.4801C28.2974 13.7188 28.1923 13.0398 27.9821 12.4432C27.7775 11.8466 27.4736 11.375 27.0701 11.0284C26.6667 10.6818 26.1639 10.5085 25.5616 10.5085C24.9537 10.5085 24.4423 10.6818 24.0275 11.0284C23.6184 11.375 23.3088 11.8466 23.0986 12.4432C22.894 13.0398 22.7917 13.7188 22.7917 14.4801C22.7917 15.2415 22.894 15.9205 23.0986 16.517C23.3088 17.1136 23.6184 17.5852 24.0275 17.9318C24.4423 18.2727 24.9537 18.4432 25.5616 18.4432ZM35.0685 21V7.90909H38.6992V21H35.0685ZM36.8924 6.22159C36.3526 6.22159 35.8896 6.04261 35.5032 5.68466C35.1225 5.32102 34.9322 4.88636 34.9322 4.38068C34.9322 3.88068 35.1225 3.4517 35.5032 3.09375C35.8896 2.73011 36.3526 2.54829 36.8924 2.54829C37.4322 2.54829 37.8924 2.73011 38.2731 3.09375C38.6595 3.4517 38.8526 3.88068 38.8526 4.38068C38.8526 4.88636 38.6595 5.32102 38.2731 5.68466C37.8924 6.04261 37.4322 6.22159 36.8924 6.22159ZM45.9583 13.4318V21H42.3276V7.90909H45.7878V10.2188H45.9412C46.231 9.45739 46.7168 8.85511 47.3986 8.41193C48.0805 7.96307 48.9072 7.73864 49.8787 7.73864C50.7878 7.73864 51.5805 7.9375 52.2566 8.33523C52.9327 8.73295 53.4583 9.30114 53.8333 10.0398C54.2083 10.7727 54.3958 11.6477 54.3958 12.6648V21H50.7651V13.3125C50.7708 12.5114 50.5663 11.8864 50.1515 11.4375C49.7367 10.983 49.1657 10.7557 48.4384 10.7557C47.9498 10.7557 47.518 10.8608 47.143 11.071C46.7736 11.2812 46.4839 11.5881 46.2736 11.9915C46.0691 12.3892 45.964 12.8693 45.9583 13.4318ZM57.9773 21V7.90909H61.608V21H57.9773ZM59.8012 6.22159C59.2614 6.22159 58.7983 6.04261 58.412 5.68466C58.0313 5.32102 57.8409 4.88636 57.8409 4.38068C57.8409 3.88068 58.0313 3.4517 58.412 3.09375C58.7983 2.73011 59.2614 2.54829 59.8012 2.54829C60.3409 2.54829 60.8012 2.73011 61.1818 3.09375C61.5682 3.4517 61.7614 3.88068 61.7614 4.38068C61.7614 4.88636 61.5682 5.32102 61.1818 5.68466C60.8012 6.04261 60.3409 6.22159 59.8012 6.22159ZM72.1994 7.90909V10.6364H64.3159V7.90909H72.1994ZM66.1057 4.77273H69.7364V16.9773C69.7364 17.3125 69.7875 17.5739 69.8898 17.7614C69.992 17.9432 70.1341 18.071 70.3159 18.1449C70.5034 18.2187 70.7193 18.2557 70.9636 18.2557C71.1341 18.2557 71.3045 18.2415 71.475 18.2131C71.6455 18.179 71.7761 18.1534 71.867 18.1364L72.4381 20.8381C72.2562 20.8949 72.0006 20.9602 71.671 21.0341C71.3415 21.1136 70.9409 21.1619 70.4693 21.179C69.5943 21.2131 68.8273 21.0966 68.1682 20.8295C67.5148 20.5625 67.0062 20.1477 66.6426 19.5852C66.279 19.0227 66.1 18.3125 66.1057 17.4545V4.77273ZM77.526 25.9091C77.0657 25.9091 76.6339 25.8722 76.2305 25.7983C75.8328 25.7301 75.5032 25.642 75.2419 25.5341L76.0601 22.8239C76.4862 22.9545 76.8697 23.0256 77.2106 23.0369C77.5572 23.0483 77.8555 22.9688 78.1055 22.7983C78.3612 22.6278 78.5686 22.3381 78.7277 21.929L78.9407 21.375L74.2447 7.90909H78.0629L80.7731 17.5227H80.9095L83.6453 7.90909H87.489L82.401 22.4148C82.1566 23.1193 81.8243 23.733 81.4038 24.2557C80.989 24.7841 80.4635 25.1903 79.8271 25.4744C79.1907 25.7642 78.4237 25.9091 77.526 25.9091Z" fill="url(#paint0_linear_33_1129)"/>
<defs>
<linearGradient id="paint0_linear_33_1129" x1="0" y1="12" x2="88" y2="12" gradientUnits="userSpaceOnUse">
<stop stop-color="#6A82FB"/>
<stop offset="1" stop-color="#FC5C7D"/>
</linearGradient>
</defs>
</svg>
